<svg width="24" height="24" viewBox="0 0 24 24" fill="none" xmlns="http://www.w3.org/2000/svg">
<path d="M17.7542 22.0011C18.9962 22.0011 20.003 20.9942 20.003 19.7522V19.1768C20.003 18.2825 19.6835 17.4177 19.1019 16.7383C17.5326 14.9048 15.1454 13.9999 12 13.9999C8.85414 13.9999 6.46812 14.9051 4.90182 16.7393C4.32206 17.4183 4.00354 18.2817 4.00354 19.1745V19.7522C4.00354 20.9942 5.0104 22.0011 6.25242 22.0011H17.7542ZM17.7542 20.5011H6.25242C5.83882 20.5011 5.50354 20.1658 5.50354 19.7522V19.1745C5.50354 18.6389 5.69465 18.1208 6.04251 17.7134C7.29582 16.2457 9.26169 15.4999 12 15.4999C14.7383 15.4999 16.7059 16.2458 17.9624 17.7137C18.3113 18.1213 18.503 18.6402 18.503 19.1768V19.7522C18.503 20.1658 18.1678 20.5011 17.7542 20.5011ZM12 2.00464C14.7614 2.00464 17 4.24321 17 7.00464C17 9.76606 14.7614 12.0046 12 12.0046C9.23857 12.0046 7 9.76606 7 7.00464C7 4.24321 9.23857 2.00464 12 2.00464ZM12 3.50464C10.067 3.50464 8.5 5.07164 8.5 7.00464C8.5 8.93764 10.067 10.5046 12 10.5046C13.933 10.5046 15.5 8.93764 15.5 7.00464C15.5 5.07164 13.933 3.50464 12 3.50464Z" fill="#1E385F"/>
</svg>
