<svg width="50" height="50" viewBox="0 0 50 50" fill="none" xmlns="http://www.w3.org/2000/svg">
<g opacity="0.4">
<path d="M41.3981 34.1973H43.9394V41.7154H41.2486L33.0266 43.7792C33.0266 43.7792 31.9324 43.993 31.2327 43.9266C30.4423 43.8516 29.2893 43.337 29.2893 43.337L19.5724 37.1456C19.5724 37.1456 18.526 36.2611 19.1239 35.0818C19.7219 33.9025 21.0673 34.1973 21.0673 34.1973L26.5985 35.8189C26.5985 34.3447 27.9439 34.1973 27.9439 34.1973H33.6245C33.6245 34.1973 34.9699 32.5758 37.5113 32.5758C40.0526 32.5758 41.3981 34.1973 41.3981 34.1973Z" fill="#F7FAFF"/>
<path d="M33.6245 37.4404H27.9439C27.9439 37.4404 26.5985 37.293 26.5985 35.8189M26.5985 35.8189C26.5985 34.3447 27.9439 34.1973 27.9439 34.1973H33.6245C33.6245 34.1973 34.97 32.5758 37.5113 32.5758C40.0526 32.5758 41.398 34.1973 41.398 34.1973H43.9394V41.7154H41.2486L33.0266 43.7792C33.0266 43.7792 31.9324 43.993 31.2327 43.9266C30.4423 43.8516 29.2893 43.337 29.2893 43.337L19.5724 37.1456C19.5724 37.1456 18.526 36.2611 19.1239 35.0818C19.7219 33.9025 21.0673 34.1973 21.0673 34.1973L26.5985 35.8189Z" stroke="#1E385F" stroke-width="1.5"/>
<path d="M8.60195 15.0451L6.06061 15.0451L6.06061 7.52702L8.75144 7.52703L16.9734 5.46323C16.9734 5.46323 18.0676 5.24942 18.7673 5.31582C19.5577 5.39082 20.7107 5.90548 20.7107 5.90548L30.4276 12.0968C30.4276 12.0968 31.474 12.9813 30.8761 14.1606C30.2781 15.3399 28.9327 15.0451 28.9327 15.0451L23.4015 13.4236C23.4015 14.8977 22.0561 15.0451 22.0561 15.0451L16.3755 15.0451C16.3755 15.0451 15.0301 16.6667 12.4887 16.6667C9.94737 16.6667 8.60195 15.0451 8.60195 15.0451Z" fill="#F7FAFF"/>
<path d="M16.3755 11.802L22.0561 11.802C22.0561 11.802 23.4015 11.9494 23.4015 13.4236M23.4015 13.4236C23.4015 14.8977 22.0561 15.0451 22.0561 15.0451L16.3755 15.0451C16.3755 15.0451 15.03 16.6667 12.4887 16.6667C9.94737 16.6667 8.60195 15.0451 8.60195 15.0451L6.06061 15.0451L6.06061 7.52702L8.75144 7.52702L16.9734 5.46323C16.9734 5.46323 18.0676 5.24942 18.7673 5.31582C19.5577 5.39082 20.7107 5.90548 20.7107 5.90548L30.4276 12.0968C30.4276 12.0968 31.474 12.9813 30.8761 14.1606C30.2781 15.3399 28.9327 15.0451 28.9327 15.0451L23.4015 13.4236Z" stroke="#1E385F" stroke-width="1.5"/>
<path d="M20.4508 17.4566C19.5982 17.6647 18.8152 18.0974 18.1815 18.7106C17.5478 19.3239 17.086 20.0959 16.843 20.9482C15.9098 24.1205 18.7344 28.6392 24.0418 32.2817C24.3252 32.4739 24.6588 32.5763 25 32.5757C25.3391 32.5769 25.6705 32.4734 25.9499 32.2792C31.2656 28.6367 34.0902 24.118 33.157 20.9457C32.7821 19.6818 31.5405 17.7296 29.5409 17.4566C28.8031 17.3972 28.062 17.5143 27.3773 17.7985C26.6927 18.0826 26.0837 18.5257 25.5999 19.092C25.5182 19.1784 25.4186 19.2455 25.3083 19.2883C25.1998 19.3323 25.0834 19.353 24.9666 19.349C24.8483 19.3448 24.7321 19.3161 24.6251 19.2647C24.5203 19.2114 24.4269 19.1379 24.3501 19.0482C23.8857 18.4717 23.2847 18.0234 22.6029 17.7449C21.9212 17.4665 21.1808 17.367 20.4508 17.4557V17.4566Z" fill="white"/>
<path d="M20.4508 17.4566C19.5982 17.6647 18.8152 18.0974 18.1815 18.7106C17.5478 19.3239 17.086 20.0959 16.843 20.9482C15.9098 24.1205 18.7344 28.6392 24.0418 32.2817C24.3252 32.4739 24.6588 32.5763 25 32.5757C25.3391 32.5769 25.6705 32.4734 25.9499 32.2792C31.2656 28.6367 34.0902 24.118 33.157 20.9457C32.7821 19.6818 31.5405 17.7296 29.5409 17.4566C28.8031 17.3972 28.062 17.5143 27.3773 17.7985C26.6927 18.0826 26.0837 18.5257 25.5999 19.092C25.5182 19.1784 25.4186 19.2455 25.3083 19.2883C25.1998 19.3323 25.0834 19.353 24.9666 19.349C24.8483 19.3448 24.7321 19.3161 24.6251 19.2647C24.5203 19.2114 24.4269 19.1379 24.3501 19.0482C23.8857 18.4717 23.2847 18.0234 22.6029 17.7449C21.9212 17.4665 21.1808 17.367 20.4508 17.4557V17.4566Z" fill="#F15922" fill-opacity="0.2"/>
<path d="M20.4508 17.4566C19.5982 17.6647 18.8152 18.0974 18.1815 18.7106C17.5478 19.3239 17.086 20.0959 16.843 20.9482C15.9098 24.1205 18.7344 28.6392 24.0418 32.2817C24.3252 32.4739 24.6588 32.5763 25 32.5757C25.3391 32.5769 25.6705 32.4734 25.9499 32.2792C31.2656 28.6367 34.0902 24.118 33.157 20.9457C32.7821 19.6818 31.5405 17.7296 29.5409 17.4566C28.8031 17.3972 28.062 17.5143 27.3773 17.7985C26.6927 18.0826 26.0837 18.5257 25.5999 19.092C25.5182 19.1784 25.4186 19.2455 25.3083 19.2883C25.1998 19.3323 25.0834 19.353 24.9666 19.349C24.8483 19.3448 24.7321 19.3161 24.6251 19.2647C24.5203 19.2114 24.4269 19.1379 24.3501 19.0482C23.8857 18.4717 23.2847 18.0234 22.6029 17.7449C21.9212 17.4665 21.1808 17.367 20.4508 17.4557V17.4566Z" stroke="#F15922" stroke-width="1.5" stroke-linejoin="round"/>
</g>
</svg>
