<svg width="50" height="50" viewBox="0 0 50 50" fill="none" xmlns="http://www.w3.org/2000/svg">
<path d="M10.9392 27.625C9.71096 27.637 8.51352 27.2461 7.53454 26.5136C6.55275 25.7779 5.84105 24.7456 5.5083 23.5739C5.1783 22.4083 5.24774 21.1678 5.70546 20.0451C6.15628 18.915 6.9657 17.9596 8.01268 17.3221C7.61433 15.6365 7.79259 13.8681 8.51933 12.293C9.22619 10.7141 10.4446 9.41216 11.9831 8.59222C13.5215 7.77228 15.2927 7.4809 17.0173 7.76393C18.747 8.02659 20.3399 8.84727 21.5476 10.0979C22.5782 7.56126 24.5629 5.51684 27.086 4.39294C29.6091 3.26903 32.4749 3.15284 35.0828 4.0687C37.6907 4.98456 39.8385 6.86141 41.0763 9.30609C42.3141 11.7508 42.5456 14.5736 41.7228 17.1832C42.8377 17.7557 43.7213 18.6869 44.2272 19.8228C44.6003 20.6698 44.7551 21.5948 44.6775 22.5152C44.6064 23.4394 44.2966 24.3301 43.7772 25.1021C43.2691 25.8766 42.573 26.5136 41.7523 26.9552C40.9317 27.3967 40.0125 27.6289 39.0779 27.6305L10.9392 27.625Z" fill="white"/>
<path d="M10.9392 27.625C9.71096 27.637 8.51352 27.2461 7.53454 26.5136C6.55275 25.7779 5.84105 24.7456 5.5083 23.5739C5.1783 22.4083 5.24774 21.1678 5.70546 20.0451C6.15628 18.915 6.9657 17.9596 8.01268 17.3221C7.61433 15.6365 7.79259 13.8681 8.51933 12.293C9.22619 10.7141 10.4446 9.41216 11.9831 8.59222C13.5215 7.77228 15.2927 7.4809 17.0173 7.76393C18.747 8.02659 20.3399 8.84727 21.5476 10.0979C22.5782 7.56126 24.5629 5.51684 27.086 4.39294C29.6091 3.26903 32.4749 3.15284 35.0828 4.0687C37.6907 4.98456 39.8385 6.86141 41.0763 9.30609C42.3141 11.7508 42.5456 14.5736 41.7228 17.1832C42.8377 17.7557 43.7213 18.6869 44.2272 19.8228C44.6003 20.6698 44.7551 21.5948 44.6775 22.5152C44.6064 23.4394 44.2966 24.3301 43.7772 25.1021C43.2691 25.8766 42.573 26.5136 41.7523 26.9552C40.9317 27.3967 40.0125 27.6289 39.0779 27.6305L10.9392 27.625Z" fill="#115ED4" fill-opacity="0.2"/>
<path d="M10.9392 27.625C9.71096 27.637 8.51352 27.2461 7.53454 26.5136C6.55275 25.7779 5.84105 24.7456 5.5083 23.5739C5.1783 22.4083 5.24774 21.1678 5.70546 20.0451C6.15628 18.915 6.9657 17.9596 8.01268 17.3221C7.61433 15.6365 7.79259 13.8681 8.51933 12.293C9.22619 10.7141 10.4446 9.41216 11.9831 8.59222C13.5215 7.77228 15.2927 7.4809 17.0173 7.76393C18.747 8.02659 20.3399 8.84727 21.5476 10.0979C22.5782 7.56126 24.5629 5.51684 27.086 4.39294C29.6091 3.26903 32.4749 3.15284 35.0828 4.0687C37.6907 4.98456 39.8385 6.86141 41.0763 9.30609C42.3141 11.7508 42.5456 14.5736 41.7228 17.1832C42.8377 17.7557 43.7213 18.6869 44.2272 19.8228C44.6003 20.6698 44.7551 21.5948 44.6775 22.5152C44.6064 23.4394 44.2966 24.3301 43.7772 25.1021C43.2691 25.8766 42.573 26.5136 41.7523 26.9552C40.9317 27.3967 40.0125 27.6289 39.0779 27.6305L10.9392 27.625Z" stroke="#1E385F" stroke-width="1.5" stroke-linejoin="round"/>
<path d="M33.0579 7.03827C35.1917 7.7506 36.949 9.21038 37.9617 11.1118" stroke="#1E385F" stroke-width="1.5" stroke-linecap="round" stroke-linejoin="round"/>
<path d="M30.6703 12.1766H18.4343C17.5651 12.1815 16.7329 12.5416 16.1183 13.1785C15.5037 13.8155 15.1563 14.678 15.1515 15.5788V42.7964C15.1563 43.6972 15.5037 44.5597 16.1183 45.1967C16.7329 45.8337 17.5651 46.1937 18.4343 46.1986H30.6703C31.5395 46.1937 32.3718 45.8337 32.9864 45.1967C33.601 44.5597 33.9484 43.6972 33.9532 42.7964V15.5788C33.9484 14.678 33.601 13.8155 32.9864 13.1785C32.3718 12.5416 31.5395 12.1815 30.6703 12.1766Z" fill="white"/>
<path d="M30.6703 12.1766H18.4343C17.5651 12.1815 16.7329 12.5416 16.1183 13.1785C15.5037 13.8155 15.1563 14.678 15.1515 15.5788V42.7964C15.1563 43.6972 15.5037 44.5597 16.1183 45.1967C16.7329 45.8337 17.5651 46.1937 18.4343 46.1986H30.6703C31.5395 46.1937 32.3718 45.8337 32.9864 45.1967C33.601 44.5597 33.9484 43.6972 33.9532 42.7964V15.5788C33.9484 14.678 33.601 13.8155 32.9864 13.1785C32.3718 12.5416 31.5395 12.1815 30.6703 12.1766Z" fill="#115ED4" fill-opacity="0.2"/>
<path d="M30.6703 12.1766H18.4343C17.5651 12.1815 16.7329 12.5416 16.1183 13.1785C15.5037 13.8155 15.1563 14.678 15.1515 15.5788V42.7964C15.1563 43.6972 15.5037 44.5597 16.1183 45.1967C16.7329 45.8337 17.5651 46.1937 18.4343 46.1986H30.6703C31.5395 46.1937 32.3718 45.8337 32.9864 45.1967C33.601 44.5597 33.9484 43.6972 33.9532 42.7964V15.5788C33.9484 14.678 33.601 13.8155 32.9864 13.1785C32.3718 12.5416 31.5395 12.1815 30.6703 12.1766Z" stroke="#1E385F" stroke-width="1.5" stroke-linejoin="round"/>
<path d="M30.6703 12.1766H18.4343C17.5651 12.1815 16.7329 12.5416 16.1183 13.1785C15.5037 13.8155 15.1563 14.678 15.1515 15.5788V40.1105C15.1563 41.0113 15.5037 41.8738 16.1183 42.5108C16.7329 43.1477 17.5651 43.5078 18.4343 43.5127H30.6703C31.5395 43.5078 32.3718 43.1477 32.9864 42.5108C33.601 41.8738 33.9484 41.0113 33.9532 40.1105V15.5788C33.9484 14.678 33.601 13.8155 32.9864 13.1785C32.3718 12.5416 31.5395 12.1815 30.6703 12.1766Z" fill="#F7FAFF" stroke="#1E385F" stroke-width="1.5"/>
<path d="M21.2121 12.8788H28.0303" stroke="#1E385F" stroke-width="2.5" stroke-linecap="round" stroke-linejoin="round"/>
<path d="M22.8257 33.1527V22.9204" stroke="#115ED5" stroke-width="1.5" stroke-linecap="round" stroke-linejoin="round"/>
<path d="M25.3838 22.9204L25.3838 33.1527" stroke="#115ED5" stroke-width="1.5" stroke-linecap="round" stroke-linejoin="round"/>
<path d="M19.6281 26.118L22.8257 22.9204" stroke="#115ED5" stroke-width="1.5" stroke-linecap="round" stroke-linejoin="round"/>
<path d="M28.5813 29.9551L25.3837 33.1527" stroke="#115ED5" stroke-width="1.5" stroke-linecap="round" stroke-linejoin="round"/>
</svg>
