<svg width="51" height="50" viewBox="0 0 51 50" fill="none" xmlns="http://www.w3.org/2000/svg">
<path d="M41.7999 16.444C41.6967 16.1408 41.6669 15.8256 41.7122 15.5182L8.98541 10.992C8.94663 11.3004 8.83343 11.5957 8.65275 11.8597C8.4725 12.1277 8.23145 12.361 7.94288 12.547C7.65631 12.7316 7.32413 12.8605 6.96823 12.9252C6.61385 13.003 6.24094 13.0169 5.87286 12.966L3.50864 30.2723C4.24864 30.3747 4.92437 30.7215 5.38717 31.2364C5.84996 31.7514 6.06191 32.3923 5.97641 33.0182L38.7032 37.5443C38.7887 36.9184 39.1647 36.3588 39.7484 35.9886C40.3321 35.6184 41.0758 35.4679 41.8158 35.5703L44.18 18.264C43.8119 18.213 43.4566 18.0984 43.1362 17.9273C42.8109 17.7684 42.5256 17.5541 42.2991 17.2985C42.0711 17.0411 41.9016 16.751 41.7999 16.444Z" fill="white"/>
<path d="M41.7999 16.444C41.6967 16.1408 41.6669 15.8256 41.7122 15.5182L8.98541 10.992C8.94663 11.3004 8.83343 11.5957 8.65275 11.8597C8.4725 12.1277 8.23145 12.361 7.94288 12.547C7.65631 12.7316 7.32413 12.8605 6.96823 12.9252C6.61385 13.003 6.24094 13.0169 5.87286 12.966L3.50864 30.2723C4.24864 30.3747 4.92437 30.7215 5.38717 31.2364C5.84996 31.7514 6.06191 32.3923 5.97641 33.0182L38.7032 37.5443C38.7887 36.9184 39.1647 36.3588 39.7484 35.9886C40.3321 35.6184 41.0758 35.4679 41.8158 35.5703L44.18 18.264C43.8119 18.213 43.4566 18.0984 43.1362 17.9273C42.8109 17.7684 42.5256 17.5541 42.2991 17.2985C42.0711 17.0411 41.9016 16.751 41.7999 16.444Z" fill="#F99F3F" fill-opacity="0.2"/>
<path d="M41.7999 16.444C41.6967 16.1408 41.6669 15.8256 41.7122 15.5182L8.98541 10.992C8.94663 11.3004 8.83343 11.5957 8.65275 11.8597C8.4725 12.1277 8.23145 12.361 7.94288 12.547C7.65631 12.7316 7.32413 12.8605 6.96823 12.9252C6.61385 13.003 6.24094 13.0169 5.87286 12.966L3.50864 30.2723C4.24864 30.3747 4.92437 30.7215 5.38717 31.2364C5.84996 31.7514 6.06191 32.3923 5.97641 33.0182L38.7032 37.5443C38.7887 36.9184 39.1647 36.3588 39.7484 35.9886C40.3321 35.6184 41.0758 35.4679 41.8158 35.5703L44.18 18.264C43.8119 18.213 43.4566 18.0984 43.1362 17.9273C42.8109 17.7684 42.5256 17.5541 42.2991 17.2985C42.0711 17.0411 41.9016 16.751 41.7999 16.444Z" stroke="#1E385F" stroke-width="1.5" stroke-linejoin="round"/>
<path d="M44.6393 18.0659C44.496 17.7796 44.4238 17.4715 44.4271 17.1606H11.3926C11.3959 17.4715 11.3237 17.7796 11.1805 18.0659C11.0382 18.3561 10.8309 18.6203 10.5702 18.844C10.3113 19.0662 9.99967 19.2394 9.65584 19.3522C9.31529 19.4779 8.94774 19.5427 8.5762 19.5428V37.0118C9.32315 37.0118 10.0395 37.2628 10.5677 37.7095C11.0959 38.1563 11.3926 38.7621 11.3926 39.3939H44.4271C44.4271 38.7621 44.7238 38.1563 45.252 37.7095C45.7802 37.2628 46.4966 37.0118 47.2435 37.0118V19.5428C46.872 19.5427 46.5044 19.4779 46.1639 19.3522C45.8201 19.2394 45.5084 19.0662 45.2495 18.844C44.9888 18.6203 44.7816 18.3561 44.6393 18.0659Z" fill="#F7FAFF" stroke="#1E385F" stroke-width="1.5" stroke-linejoin="round"/>
<path d="M40.1919 35.9439V20.6106" stroke="#1E385F" stroke-width="1.5" stroke-linecap="round" stroke-dasharray="3 3"/>
<g clip-path="url(#clip0_1_224)">
<path d="M24.5861 28.2981L24.6249 28.3371C25.0039 28.8062 25.2823 29.3491 25.4428 29.9316C25.5945 30.4792 25.6079 31.0562 25.4817 31.6104C25.4654 31.6921 25.428 31.768 25.3733 31.8305C25.3138 31.9026 25.2503 31.9713 25.1831 32.0362C25.0195 32.1796 24.8474 32.3129 24.6679 32.4354C24.1649 32.7913 23.6455 33.1184 23.1139 33.4332C22.433 33.8446 21.7439 34.2252 21.0344 34.577C20.7788 34.7025 20.5232 34.8239 20.2574 34.9268C20.148 34.969 20.036 35.0041 19.9221 35.0317C19.8361 35.0526 19.7464 35.0526 19.6604 35.0317C19.473 34.9848 19.2902 34.9207 19.1144 34.8404C18.728 34.6717 18.3497 34.4824 17.9776 34.2828C17.0718 33.8014 16.1864 33.283 15.3194 32.7172L15.0495 32.5341L14.98 32.4827C14.9977 32.4803 15.0155 32.4803 15.0332 32.4827C15.0925 32.5094 15.1497 32.5403 15.209 32.565C15.5248 32.6996 15.8558 32.7949 16.1946 32.8489C16.4459 32.8906 16.7006 32.9085 16.9552 32.9024C17.4132 32.8939 17.8645 32.7895 18.2802 32.5958C18.6707 32.4127 19.0592 32.2255 19.4395 32.0259C20.2111 31.6145 20.9703 31.1886 21.7173 30.7483C22.3696 30.3595 23.0157 29.9604 23.6414 29.5283C23.807 29.4131 23.9706 29.2938 24.1321 29.1704C24.2251 29.0988 24.3132 29.0212 24.3959 28.9379C24.5103 28.8294 24.5827 28.6836 24.6004 28.5264C24.6046 28.4854 24.6046 28.444 24.6004 28.403C24.6045 28.3742 24.5963 28.3474 24.5861 28.2981Z" fill="#F5853F"/>
<path d="M25.6678 30.6887C25.6392 30.6702 25.6412 30.6455 25.6412 30.6208C25.6315 30.4704 25.6096 30.3211 25.5758 30.1743C25.4521 29.519 25.1713 28.9039 24.7579 28.3824C24.5732 28.1464 24.3556 27.9385 24.1118 27.7652C23.8092 27.5595 23.4984 27.3435 23.1957 27.148C22.4433 26.6543 21.6683 26.1934 20.8873 25.747C20.2534 25.3849 19.6134 25.0351 18.9571 24.7183C18.7056 24.5928 18.452 24.4714 18.1882 24.3706C18.0932 24.3328 17.9963 24.2999 17.8979 24.2719C17.773 24.2352 17.6404 24.2352 17.5155 24.2719C17.4452 24.2933 17.3803 24.3298 17.3254 24.3788L17.2722 24.422C17.271 24.4077 17.271 24.3932 17.2722 24.3788C17.536 23.6496 17.9962 23.0085 18.6013 22.5272C18.9236 22.2873 19.2857 22.1069 19.6707 21.9944C19.7783 21.9642 19.8922 21.9642 19.9999 21.9944C20.1447 22.0285 20.2864 22.0753 20.4231 22.1343C20.7707 22.2783 21.106 22.4449 21.4455 22.6178C22.4734 23.1509 23.472 23.7394 24.4369 24.3809C24.6679 24.5352 24.8969 24.6957 25.1157 24.8705C25.2146 24.9493 25.3082 25.0345 25.3959 25.1257C25.4614 25.1938 25.5091 25.2772 25.5349 25.3684C25.5888 25.5643 25.625 25.7647 25.6433 25.9671C25.7174 26.7239 25.7535 27.4841 25.7516 28.2446C25.7516 28.7836 25.7516 29.3226 25.7271 29.8616C25.7148 30.127 25.6964 30.3904 25.6801 30.6558C25.6719 30.664 25.6698 30.6722 25.6678 30.6887Z" fill="#F99F3F"/>
<path d="M18.7975 22.3092C18.7873 22.3462 18.7587 22.3544 18.7382 22.3688C18.1928 22.7463 17.7454 23.2501 17.4337 23.8378C17.257 24.1648 17.1367 24.5195 17.0779 24.887C17.0616 24.9858 17.0513 25.0927 17.0431 25.1853C16.9961 25.7285 16.9614 26.2716 16.945 26.8168C16.9164 27.7014 16.9062 28.584 16.9286 29.4687C16.9286 29.767 16.9409 30.0633 16.9532 30.3616C16.9675 30.7463 16.9879 31.1331 17.0247 31.5178C17.0404 31.725 17.0684 31.9311 17.1086 32.135C17.1222 32.2327 17.1505 32.3277 17.1924 32.4168C17.2255 32.4791 17.2667 32.5365 17.3151 32.5876C17.3721 32.6464 17.4422 32.6909 17.5196 32.7172L17.6014 32.7481C17.5032 32.7625 17.4255 32.7789 17.3478 32.7851C17.1904 32.7974 17.0329 32.8119 16.8755 32.8139C16.4562 32.8228 16.0382 32.7659 15.6364 32.6452C15.1712 32.5065 14.7415 32.2678 14.3768 31.9457L14.3564 31.9293C14.2396 31.8369 14.158 31.7068 14.1253 31.561C14.0932 31.4414 14.0693 31.3197 14.0538 31.1968C14.0047 30.8368 13.9802 30.4768 13.9597 30.1147C13.9209 29.2568 13.9209 28.3989 13.9311 27.541C13.9393 27.1638 13.957 26.7873 13.9843 26.4115C13.9993 26.1558 14.0273 25.901 14.0681 25.6482C14.0885 25.5351 14.1151 25.424 14.1458 25.3129C14.1713 25.2279 14.2177 25.1507 14.2807 25.0886C14.3867 24.9785 14.5009 24.8768 14.6222 24.7841C14.9269 24.5496 15.2356 24.3336 15.5689 24.1258C16.5236 23.5103 17.5099 22.9458 18.5235 22.4347L18.7771 22.3112L18.7975 22.3092Z" fill="#FEC23B"/>
</g>
<defs>
<clipPath id="clip0_1_224">
<rect width="11.8246" height="13.0682" fill="white" transform="translate(13.9208 21.9697)"/>
</clipPath>
</defs>
</svg>
