<svg width="50" height="50" viewBox="0 0 50 50" fill="none" xmlns="http://www.w3.org/2000/svg">
<path d="M28.7879 36.3636H21.2121L19.5951 39.5977C18.5977 41.5925 20.0482 43.9394 22.2783 43.9394H27.7217C29.9518 43.9394 31.4023 41.5925 30.4049 39.5977L28.7879 36.3636Z" fill="#F7FAFF" stroke="#1E385F" stroke-width="1.5"/>
<path d="M12.1212 15.1515C12.1212 15.1515 13.6364 29.1667 21.2121 36.3636H28.7879C36.3636 29.1667 37.8788 15.1515 37.8788 15.1515H12.1212Z" fill="#F7FAFF" stroke="#1E385F" stroke-width="1.5"/>
<path fill-rule="evenodd" clip-rule="evenodd" d="M16.5768 13.6364C16.1432 12.8854 16.2764 11.9627 16.8437 11.3636C16.2764 10.7646 16.1432 9.84188 16.5768 9.09088C17.0104 8.33988 17.8761 7.99391 18.6785 8.18571C18.9137 7.3949 19.6461 6.81818 20.5133 6.81818C21.3805 6.81818 22.1129 7.39491 22.3481 8.18572C23.1505 7.99393 24.0162 8.3399 24.4498 9.0909C24.8834 9.8419 24.7501 10.7646 24.1828 11.3636C24.7501 11.9627 24.8834 12.8854 24.4498 13.6364C24.0162 14.3874 23.1505 14.7334 22.348 14.5416C22.1129 15.3324 21.3805 15.9091 20.5133 15.9091C19.6461 15.9091 18.9136 15.3324 18.6785 14.5415C17.8761 14.7333 17.0104 14.3873 16.5768 13.6364Z" fill="white"/>
<path fill-rule="evenodd" clip-rule="evenodd" d="M16.5768 13.6364C16.1432 12.8854 16.2764 11.9627 16.8437 11.3636C16.2764 10.7646 16.1432 9.84188 16.5768 9.09088C17.0104 8.33988 17.8761 7.99391 18.6785 8.18571C18.9137 7.3949 19.6461 6.81818 20.5133 6.81818C21.3805 6.81818 22.1129 7.39491 22.3481 8.18572C23.1505 7.99393 24.0162 8.3399 24.4498 9.0909C24.8834 9.8419 24.7501 10.7646 24.1828 11.3636C24.7501 11.9627 24.8834 12.8854 24.4498 13.6364C24.0162 14.3874 23.1505 14.7334 22.348 14.5416C22.1129 15.3324 21.3805 15.9091 20.5133 15.9091C19.6461 15.9091 18.9136 15.3324 18.6785 14.5415C17.8761 14.7333 17.0104 14.3873 16.5768 13.6364Z" fill="#ED1F1F" fill-opacity="0.2"/>
<path fill-rule="evenodd" clip-rule="evenodd" d="M16.5768 13.6364C16.1432 12.8854 16.2764 11.9627 16.8437 11.3636C16.2764 10.7646 16.1432 9.84188 16.5768 9.09088C17.0104 8.33988 17.8761 7.99391 18.6785 8.18571C18.9137 7.3949 19.6461 6.81818 20.5133 6.81818C21.3805 6.81818 22.1129 7.39491 22.3481 8.18572C23.1505 7.99393 24.0162 8.3399 24.4498 9.0909C24.8834 9.8419 24.7501 10.7646 24.1828 11.3636C24.7501 11.9627 24.8834 12.8854 24.4498 13.6364C24.0162 14.3874 23.1505 14.7334 22.348 14.5416C22.1129 15.3324 21.3805 15.9091 20.5133 15.9091C19.6461 15.9091 18.9136 15.3324 18.6785 14.5415C17.8761 14.7333 17.0104 14.3873 16.5768 13.6364Z" stroke="#ED1F1F" stroke-width="1.5"/>
<path d="M21.7095 11.3636C21.7095 12.0243 21.1739 12.5598 20.5133 12.5598C19.8527 12.5598 19.3171 12.0243 19.3171 11.3636C19.3171 10.703 19.8527 10.1674 20.5133 10.1674C21.1739 10.1674 21.7095 10.703 21.7095 11.3636Z" fill="white" stroke="#ED1F1F" stroke-width="1.5" stroke-linejoin="round"/>
<path fill-rule="evenodd" clip-rule="evenodd" d="M25.6677 13.6364C25.2341 12.8854 25.3673 11.9627 25.9347 11.3636C25.3673 10.7646 25.2341 9.84188 25.6677 9.09088C26.1013 8.33988 26.967 7.99391 27.7694 8.18571C28.0046 7.3949 28.737 6.81818 29.6042 6.81818C30.4714 6.81818 31.2038 7.39491 31.439 8.18572C32.2414 7.99393 33.1071 8.3399 33.5407 9.0909C33.9743 9.8419 33.8411 10.7646 33.2737 11.3636C33.8411 11.9627 33.9743 12.8854 33.5407 13.6364C33.1071 14.3874 32.2414 14.7334 31.439 14.5416C31.2038 15.3324 30.4714 15.9091 29.6042 15.9091C28.737 15.9091 28.0046 15.3324 27.7694 14.5415C26.967 14.7333 26.1013 14.3873 25.6677 13.6364Z" fill="white"/>
<path fill-rule="evenodd" clip-rule="evenodd" d="M25.6677 13.6364C25.2341 12.8854 25.3673 11.9627 25.9347 11.3636C25.3673 10.7646 25.2341 9.84188 25.6677 9.09088C26.1013 8.33988 26.967 7.99391 27.7694 8.18571C28.0046 7.3949 28.737 6.81818 29.6042 6.81818C30.4714 6.81818 31.2038 7.39491 31.439 8.18572C32.2414 7.99393 33.1071 8.3399 33.5407 9.0909C33.9743 9.8419 33.8411 10.7646 33.2737 11.3636C33.8411 11.9627 33.9743 12.8854 33.5407 13.6364C33.1071 14.3874 32.2414 14.7334 31.439 14.5416C31.2038 15.3324 30.4714 15.9091 29.6042 15.9091C28.737 15.9091 28.0046 15.3324 27.7694 14.5415C26.967 14.7333 26.1013 14.3873 25.6677 13.6364Z" fill="#F15922" fill-opacity="0.2"/>
<path fill-rule="evenodd" clip-rule="evenodd" d="M25.6677 13.6364C25.2341 12.8854 25.3673 11.9627 25.9347 11.3636C25.3673 10.7646 25.2341 9.84188 25.6677 9.09088C26.1013 8.33988 26.967 7.99391 27.7694 8.18571C28.0046 7.3949 28.737 6.81818 29.6042 6.81818C30.4714 6.81818 31.2038 7.39491 31.439 8.18572C32.2414 7.99393 33.1071 8.3399 33.5407 9.0909C33.9743 9.8419 33.8411 10.7646 33.2737 11.3636C33.8411 11.9627 33.9743 12.8854 33.5407 13.6364C33.1071 14.3874 32.2414 14.7334 31.439 14.5416C31.2038 15.3324 30.4714 15.9091 29.6042 15.9091C28.737 15.9091 28.0046 15.3324 27.7694 14.5415C26.967 14.7333 26.1013 14.3873 25.6677 13.6364Z" stroke="#F15922" stroke-width="1.5" stroke-linejoin="round"/>
<path d="M30.8004 11.3636C30.8004 12.0243 30.2649 12.5598 29.6042 12.5598C28.9436 12.5598 28.4081 12.0243 28.4081 11.3636C28.4081 10.703 28.9436 10.1674 29.6042 10.1674C30.2649 10.1674 30.8004 10.703 30.8004 11.3636Z" fill="white" stroke="#F15922" stroke-width="1.5" stroke-linejoin="round"/>
<path fill-rule="evenodd" clip-rule="evenodd" d="M11.3165 18.5606C10.8107 17.6844 10.9661 16.608 11.628 15.9091C10.9661 15.2102 10.8107 14.1337 11.3165 13.2576C11.8224 12.3814 12.8324 11.9778 13.7686 12.2015C14.0429 11.2789 14.8974 10.6061 15.9091 10.6061C16.9208 10.6061 17.7754 11.2789 18.0497 12.2015C18.9859 11.9778 19.9959 12.3814 20.5017 13.2576C21.0076 14.1337 20.8521 15.2102 20.1903 15.9091C20.8521 16.608 21.0076 17.6845 20.5017 18.5606C19.9959 19.4368 18.9859 19.8404 18.0497 19.6167C17.7754 20.5393 16.9208 21.2121 15.9091 21.2121C14.8974 21.2121 14.0429 20.5393 13.7686 19.6166C12.8324 19.8404 11.8224 19.4368 11.3165 18.5606Z" fill="white"/>
<path fill-rule="evenodd" clip-rule="evenodd" d="M11.3165 18.5606C10.8107 17.6844 10.9661 16.608 11.628 15.9091C10.9661 15.2102 10.8107 14.1337 11.3165 13.2576C11.8224 12.3814 12.8324 11.9778 13.7686 12.2015C14.0429 11.2789 14.8974 10.6061 15.9091 10.6061C16.9208 10.6061 17.7754 11.2789 18.0497 12.2015C18.9859 11.9778 19.9959 12.3814 20.5017 13.2576C21.0076 14.1337 20.8521 15.2102 20.1903 15.9091C20.8521 16.608 21.0076 17.6845 20.5017 18.5606C19.9959 19.4368 18.9859 19.8404 18.0497 19.6167C17.7754 20.5393 16.9208 21.2121 15.9091 21.2121C14.8974 21.2121 14.0429 20.5393 13.7686 19.6166C12.8324 19.8404 11.8224 19.4368 11.3165 18.5606Z" fill="#54C5D0" fill-opacity="0.2"/>
<path fill-rule="evenodd" clip-rule="evenodd" d="M11.3165 18.5606C10.8107 17.6844 10.9661 16.608 11.628 15.9091C10.9661 15.2102 10.8107 14.1337 11.3165 13.2576C11.8224 12.3814 12.8324 11.9778 13.7686 12.2015C14.0429 11.2789 14.8974 10.6061 15.9091 10.6061C16.9208 10.6061 17.7754 11.2789 18.0497 12.2015C18.9859 11.9778 19.9959 12.3814 20.5017 13.2576C21.0076 14.1337 20.8521 15.2102 20.1903 15.9091C20.8521 16.608 21.0076 17.6845 20.5017 18.5606C19.9959 19.4368 18.9859 19.8404 18.0497 19.6167C17.7754 20.5393 16.9208 21.2121 15.9091 21.2121C14.8974 21.2121 14.0429 20.5393 13.7686 19.6166C12.8324 19.8404 11.8224 19.4368 11.3165 18.5606Z" stroke="#54C5D0" stroke-width="1.5" stroke-linejoin="round"/>
<path d="M17.3047 15.9091C17.3047 16.6798 16.6799 17.3046 15.9091 17.3046C15.1384 17.3046 14.5136 16.6798 14.5136 15.9091C14.5136 15.1384 15.1384 14.5136 15.9091 14.5136C16.6799 14.5136 17.3047 15.1384 17.3047 15.9091Z" fill="white" stroke="#54C5D0" stroke-width="1.5" stroke-linejoin="round"/>
<path fill-rule="evenodd" clip-rule="evenodd" d="M29.4984 18.5606C28.9925 17.6844 29.148 16.608 29.8098 15.9091C29.148 15.2102 28.9925 14.1337 29.4984 13.2576C30.0042 12.3814 31.0142 11.9778 31.9504 12.2015C32.2247 11.2789 33.0793 10.6061 34.0909 10.6061C35.1026 10.6061 35.9572 11.2789 36.2315 12.2015C37.1677 11.9778 38.1777 12.3814 38.6835 13.2576C39.1894 14.1337 39.034 15.2102 38.3721 15.9091C39.034 16.608 39.1894 17.6845 38.6835 18.5606C38.1777 19.4368 37.1677 19.8404 36.2315 19.6167C35.9572 20.5393 35.1026 21.2121 34.0909 21.2121C33.0792 21.2121 32.2247 20.5393 31.9504 19.6166C31.0142 19.8404 30.0042 19.4368 29.4984 18.5606Z" fill="white"/>
<path fill-rule="evenodd" clip-rule="evenodd" d="M29.4984 18.5606C28.9925 17.6844 29.148 16.608 29.8098 15.9091C29.148 15.2102 28.9925 14.1337 29.4984 13.2576C30.0042 12.3814 31.0142 11.9778 31.9504 12.2015C32.2247 11.2789 33.0793 10.6061 34.0909 10.6061C35.1026 10.6061 35.9572 11.2789 36.2315 12.2015C37.1677 11.9778 38.1777 12.3814 38.6835 13.2576C39.1894 14.1337 39.034 15.2102 38.3721 15.9091C39.034 16.608 39.1894 17.6845 38.6835 18.5606C38.1777 19.4368 37.1677 19.8404 36.2315 19.6167C35.9572 20.5393 35.1026 21.2121 34.0909 21.2121C33.0792 21.2121 32.2247 20.5393 31.9504 19.6166C31.0142 19.8404 30.0042 19.4368 29.4984 18.5606Z" fill="#115ED5" fill-opacity="0.2"/>
<path fill-rule="evenodd" clip-rule="evenodd" d="M29.4984 18.5606C28.9925 17.6844 29.148 16.608 29.8098 15.9091C29.148 15.2102 28.9925 14.1337 29.4984 13.2576C30.0042 12.3814 31.0142 11.9778 31.9504 12.2015C32.2247 11.2789 33.0793 10.6061 34.0909 10.6061C35.1026 10.6061 35.9572 11.2789 36.2315 12.2015C37.1677 11.9778 38.1777 12.3814 38.6835 13.2576C39.1894 14.1337 39.034 15.2102 38.3721 15.9091C39.034 16.608 39.1894 17.6845 38.6835 18.5606C38.1777 19.4368 37.1677 19.8404 36.2315 19.6167C35.9572 20.5393 35.1026 21.2121 34.0909 21.2121C33.0792 21.2121 32.2247 20.5393 31.9504 19.6166C31.0142 19.8404 30.0042 19.4368 29.4984 18.5606Z" stroke="#115ED5" stroke-width="1.5" stroke-linejoin="round"/>
<path d="M35.4865 15.9091C35.4865 16.6798 34.8617 17.3046 34.091 17.3046C33.3202 17.3046 32.6954 16.6798 32.6954 15.9091C32.6954 15.1384 33.3202 14.5136 34.091 14.5136C34.8617 14.5136 35.4865 15.1384 35.4865 15.9091Z" fill="white" stroke="#115ED4" stroke-width="1.5" stroke-linejoin="round"/>
<path fill-rule="evenodd" clip-rule="evenodd" d="M19.7513 22.0893C19.1732 21.088 19.3508 19.8577 20.1072 19.059C19.3508 18.2603 19.1732 17.03 19.7513 16.0287C20.3294 15.0274 21.4837 14.5661 22.5536 14.8218C22.8671 13.7674 23.8437 12.9984 25 12.9984C26.1562 12.9984 27.1328 13.7674 27.4463 14.8218C28.5162 14.5661 29.6705 15.0274 30.2486 16.0287C30.8268 17.03 30.6491 18.2603 29.8927 19.059C30.6491 19.8577 30.8268 21.088 30.2486 22.0894C29.6705 23.0907 28.5162 23.552 27.4463 23.2963C27.1328 24.3507 26.1562 25.1196 25 25.1196C23.8437 25.1196 22.8671 24.3506 22.5536 23.2962C21.4837 23.5519 20.3294 23.0906 19.7513 22.0893Z" fill="white"/>
<path fill-rule="evenodd" clip-rule="evenodd" d="M19.7513 22.0893C19.1732 21.088 19.3508 19.8577 20.1072 19.059C19.3508 18.2603 19.1732 17.03 19.7513 16.0287C20.3294 15.0274 21.4837 14.5661 22.5536 14.8218C22.8671 13.7674 23.8437 12.9984 25 12.9984C26.1562 12.9984 27.1328 13.7674 27.4463 14.8218C28.5162 14.5661 29.6705 15.0274 30.2486 16.0287C30.8268 17.03 30.6491 18.2603 29.8927 19.059C30.6491 19.8577 30.8268 21.088 30.2486 22.0894C29.6705 23.0907 28.5162 23.552 27.4463 23.2963C27.1328 24.3507 26.1562 25.1196 25 25.1196C23.8437 25.1196 22.8671 24.3506 22.5536 23.2962C21.4837 23.5519 20.3294 23.0906 19.7513 22.0893Z" fill="#C3379C" fill-opacity="0.2"/>
<path fill-rule="evenodd" clip-rule="evenodd" d="M19.7513 22.0893C19.1732 21.088 19.3508 19.8577 20.1072 19.059C19.3508 18.2603 19.1732 17.03 19.7513 16.0287C20.3294 15.0274 21.4837 14.5661 22.5536 14.8218C22.8671 13.7674 23.8437 12.9984 25 12.9984C26.1562 12.9984 27.1328 13.7674 27.4463 14.8218C28.5162 14.5661 29.6705 15.0274 30.2486 16.0287C30.8268 17.03 30.6491 18.2603 29.8927 19.059C30.6491 19.8577 30.8268 21.088 30.2486 22.0894C29.6705 23.0907 28.5162 23.552 27.4463 23.2963C27.1328 24.3507 26.1562 25.1196 25 25.1196C23.8437 25.1196 22.8671 24.3506 22.5536 23.2962C21.4837 23.5519 20.3294 23.0906 19.7513 22.0893Z" stroke="#C3379C" stroke-width="1.5" stroke-linejoin="round"/>
<path d="M26.5949 19.059C26.5949 19.9399 25.8808 20.6539 25 20.6539C24.1191 20.6539 23.4051 19.9399 23.4051 19.059C23.4051 18.1782 24.1191 17.4641 25 17.4641C25.8808 17.4641 26.5949 18.1782 26.5949 19.059Z" fill="white" stroke="#C3379C" stroke-width="1.5" stroke-linejoin="round"/>
<path d="M25 36.6736L19.5612 34.2261C18.5585 33.7749 17.4242 34.5083 17.4242 35.6078V37.7394C17.4242 38.8388 18.5585 39.5722 19.5612 39.1211L25 36.6736Z" fill="#F7FAFF"/>
<path d="M25 36.6736L30.4388 39.1211C31.4415 39.5722 32.5758 38.8388 32.5758 37.7394V35.6078C32.5758 34.5083 31.4415 33.7749 30.4388 34.2261L25 36.6736Z" fill="#F7FAFF"/>
<path d="M25 36.6736L19.5612 34.2261C18.5585 33.7749 17.4242 34.5083 17.4242 35.6078V37.7394C17.4242 38.8388 18.5585 39.5722 19.5612 39.1211L25 36.6736ZM25 36.6736L30.4388 39.1211C31.4415 39.5722 32.5758 38.8388 32.5758 37.7394V35.6078C32.5758 34.5083 31.4415 33.7749 30.4388 34.2261L25 36.6736Z" stroke="#1E385F" stroke-width="1.5"/>
<rect x="23.4848" y="34.7796" width="3.0303" height="3.78788" rx="1" fill="#F7FAFF" stroke="#1E385F" stroke-width="1.5"/>
</svg>
