<svg width="50" height="50" viewBox="0 0 50 50" fill="none" xmlns="http://www.w3.org/2000/svg">
<path d="M45.2906 27.5692H25.7974C25.1512 27.5692 24.5314 27.8 24.0744 28.2107C23.6175 28.6214 23.3607 29.1784 23.3607 29.7593V40.7097C23.3607 41.2905 23.6175 41.8476 24.0744 42.2583C24.5314 42.669 25.1512 42.8998 25.7974 42.8998H45.2906C45.9369 42.8998 46.5567 42.669 47.0136 42.2583C47.4706 41.8476 47.7273 41.2905 47.7273 40.7097V29.7593C47.7273 29.1784 47.4706 28.6214 47.0136 28.2107C46.5567 27.8 45.9369 27.5692 45.2906 27.5692Z" fill="white"/>
<path d="M45.2906 27.5692H25.7974C25.1512 27.5692 24.5314 27.8 24.0744 28.2107C23.6175 28.6214 23.3607 29.1784 23.3607 29.7593V40.7097C23.3607 41.2905 23.6175 41.8476 24.0744 42.2583C24.5314 42.669 25.1512 42.8998 25.7974 42.8998H45.2906C45.9369 42.8998 46.5567 42.669 47.0136 42.2583C47.4706 41.8476 47.7273 41.2905 47.7273 40.7097V29.7593C47.7273 29.1784 47.4706 28.6214 47.0136 28.2107C46.5567 27.8 45.9369 27.5692 45.2906 27.5692Z" fill="#ED1F1F" fill-opacity="0.2"/>
<path d="M45.2906 27.5692H25.7974C25.1512 27.5692 24.5314 27.8 24.0744 28.2107C23.6175 28.6214 23.3607 29.1784 23.3607 29.7593V40.7097C23.3607 41.2905 23.6175 41.8476 24.0744 42.2583C24.5314 42.669 25.1512 42.8998 25.7974 42.8998H45.2906C45.9369 42.8998 46.5567 42.669 47.0136 42.2583C47.4706 41.8476 47.7273 41.2905 47.7273 40.7097V29.7593C47.7273 29.1784 47.4706 28.6214 47.0136 28.2107C46.5567 27.8 45.9369 27.5692 45.2906 27.5692Z" stroke="#1E385F" stroke-width="1.5" stroke-linejoin="round"/>
<rect x="23.3607" y="31.6249" width="24.3666" height="3.65013" fill="white"/>
<rect x="23.3607" y="31.6249" width="24.3666" height="3.65013" fill="#ED1F1F" fill-opacity="0.02"/>
<rect x="23.3607" y="31.6249" width="24.3666" height="3.65013" stroke="#1E385F" stroke-width="1.5" stroke-linejoin="round"/>
<path d="M24.5793 23.9412H34.5331V39.3193C34.5279 40.2673 34.149 41.175 33.4786 41.8454C32.8083 42.5157 31.9006 42.8946 30.9526 42.8998H10.8304C10.3611 42.899 9.8964 42.8056 9.46325 42.6249C9.0301 42.4443 8.63695 42.18 8.30611 41.8471C7.6363 41.1755 7.25706 40.2678 7.24994 39.3193V23.9412H17.2214" fill="#F7FAFF"/>
<path d="M24.5793 23.9412H34.5331V39.3193C34.5279 40.2673 34.149 41.175 33.4786 41.8454C32.8083 42.5157 31.9006 42.8946 30.9526 42.8998H10.8304C10.3611 42.899 9.8964 42.8056 9.46325 42.6249C9.0301 42.4443 8.63695 42.18 8.30611 41.8471C7.6363 41.1755 7.25706 40.2678 7.24994 39.3193V23.9412H17.2214" stroke="#1E385F" stroke-width="1.5" stroke-linejoin="round"/>
<path d="M20.5332 16.0464C20.4079 16.1538 20.1036 16.3686 18.0806 16.0464C14.16 15.4377 10.9377 14.9364 10.1321 12.8955C9.849 11.6438 10.0743 10.3309 10.7586 9.24524C11.4545 8.16317 12.5472 7.39756 13.8019 7.11311C17.5793 6.73716 22.0907 14.65 20.5332 16.0464Z" stroke="#1E385F" stroke-width="1.5" stroke-linejoin="round"/>
<path d="M21.2676 16.0464C21.375 16.1538 21.6793 16.3686 23.7022 16.0464C27.6229 15.4377 30.8452 14.9364 31.6687 12.8955C31.9445 11.6424 31.7133 10.3311 31.0258 9.24775C30.3382 8.16442 29.2502 7.39705 27.9989 7.11311C24.2036 6.73716 19.6922 14.65 21.2676 16.0464Z" stroke="#1E385F" stroke-width="1.5" stroke-linejoin="round"/>
<path d="M17.2215 23.9412H6.26528C5.79359 23.9439 5.32596 23.853 4.88961 23.6739C4.45326 23.4947 4.05678 23.2309 3.72307 22.8975C3.39548 22.5616 3.13442 22.1668 2.95339 21.7339C2.77517 21.2981 2.6839 20.8316 2.68481 20.3608V20.1459C2.68999 19.1979 3.06889 18.2902 3.73924 17.6198C4.40959 16.9495 5.31728 16.5706 6.26528 16.5655H34.909C35.857 16.5706 36.7647 16.9495 37.4351 17.6198C38.1054 18.2902 38.4843 19.1979 38.4895 20.1459V20.3608C38.4904 20.8316 38.3991 21.2981 38.2209 21.7339C38.0442 22.1697 37.7822 22.5657 37.4501 22.8986C37.1181 23.2316 36.7228 23.4948 36.2875 23.6727C35.8496 23.8502 35.3815 23.9413 34.909 23.9412H24.5793" fill="#F7FAFF"/>
<path d="M17.2215 23.9412H6.26528C5.79359 23.9439 5.32596 23.853 4.88961 23.6739C4.45326 23.4947 4.05678 23.2309 3.72307 22.8975C3.39548 22.5616 3.13442 22.1668 2.95339 21.7339C2.77517 21.2981 2.6839 20.8316 2.68481 20.3608V20.1459C2.68999 19.1979 3.06889 18.2902 3.73924 17.6198C4.40959 16.9495 5.31728 16.5706 6.26528 16.5655H34.909C35.857 16.5706 36.7647 16.9495 37.4351 17.6198C38.1054 18.2902 38.4843 19.1979 38.4895 20.1459V20.3608C38.4904 20.8316 38.3991 21.2981 38.2209 21.7339C38.0442 22.1697 37.7822 22.5657 37.4501 22.8986C37.1181 23.2316 36.7228 23.4948 36.2875 23.6727C35.8496 23.8502 35.3815 23.9413 34.909 23.9412H24.5793" stroke="#1E385F" stroke-width="1.5" stroke-linejoin="round"/>
<path d="M24.5975 16.5655H17.1859V42.8998H24.5975V16.5655Z" fill="white"/>
<path d="M24.5975 16.5655H17.1859V42.8998H24.5975V16.5655Z" fill="#ED1F1F" fill-opacity="0.2"/>
<path d="M24.5975 16.5655H17.1859V42.8998H24.5975V16.5655Z" stroke="#1E385F" stroke-width="1.5"/>
</svg>
