<svg width="24" height="24" viewBox="0 0 24 24" fill="none" xmlns="http://www.w3.org/2000/svg">
<path fill-rule="evenodd" clip-rule="evenodd" d="M8.25 9.00001C8.25 8.58579 8.58579 8.25001 9 8.25001H11C11.4142 8.25001 11.75 8.58579 11.75 9.00001C11.75 9.41422 11.4142 9.75001 11 9.75001H9C8.58579 9.75001 8.25 9.41422 8.25 9.00001Z" fill="#1E385F"/>
<path fill-rule="evenodd" clip-rule="evenodd" d="M6.25 13C6.25 12.5858 6.58579 12.25 7 12.25H13C13.4142 12.25 13.75 12.5858 13.75 13C13.75 13.4142 13.4142 13.75 13 13.75H7C6.58579 13.75 6.25 13.4142 6.25 13Z" fill="#1E385F"/>
<path fill-rule="evenodd" clip-rule="evenodd" d="M6.25 17C6.25 16.5858 6.58579 16.25 7 16.25H13C13.4142 16.25 13.75 16.5858 13.75 17C13.75 17.4142 13.4142 17.75 13 17.75H7C6.58579 17.75 6.25 17.4142 6.25 17Z" fill="#1E385F"/>
<path fill-rule="evenodd" clip-rule="evenodd" d="M18 13.5C17.1716 13.5 16.5 12.8284 16.5 12V3.85905L14.2461 5.1513C13.784 5.41624 13.216 5.41624 12.7539 5.1513L10 3.57239L7.24608 5.1513C6.78397 5.41624 6.21603 5.41624 5.75392 5.1513L3.5 3.85905V19C3.5 19.3978 3.65804 19.7794 3.93934 20.0607C4.22064 20.342 4.60217 20.5 5 20.5H19C19.3978 20.5 19.7794 20.342 20.0607 20.0607C20.342 19.7794 20.5 19.3978 20.5 19V13.5H18ZM3.5 2.13001C3.34798 2.04224 3.17554 1.99603 3 1.99603C2.82446 1.99603 2.65202 2.04224 2.5 2.13001C2.3474 2.21811 2.22078 2.34498 2.13298 2.49775C2.04518 2.65053 1.9993 2.8238 2 3.00001V19C2 19.7957 2.31607 20.5587 2.87868 21.1213C3.44129 21.6839 4.20435 22 5 22H19C19.7956 22 20.5587 21.6839 21.1213 21.1213C21.6839 20.5587 22 19.7957 22 19V13C22 12.7348 21.8946 12.4804 21.7071 12.2929C21.5196 12.1054 21.2652 12 21 12H18V3.00001C18.0007 2.8238 17.9548 2.65053 17.867 2.49775C17.7792 2.34498 17.6526 2.21811 17.5 2.13001C17.348 2.04224 17.1755 1.99603 17 1.99603C16.8245 1.99603 16.652 2.04224 16.5 2.13001L13.5 3.85001L10.5 2.13001C10.348 2.04224 10.1755 1.99603 10 1.99603C9.82446 1.99603 9.65202 2.04224 9.5 2.13001L6.5 3.85001" fill="#1E385F"/>
<path fill-rule="evenodd" clip-rule="evenodd" d="M20.5 13.5H18V19.25C18 19.9404 18.5596 20.5 19.25 20.5C19.9404 20.5 20.5 19.9404 20.5 19.25V13.5ZM16.5 12V19.25C16.5 20.7688 17.7312 22 19.25 22C20.7688 22 22 20.7688 22 19.25V13C22 12.4477 21.5523 12 21 12H16.5Z" fill="#1E385F"/>
</svg>
