<svg width="54" height="60" viewBox="0 0 54 60" fill="none" xmlns="http://www.w3.org/2000/svg">
<g filter="url(#filter0_d_1_191)">
<g opacity="0.2">
<path d="M30.0002 8.54901C26.9396 8.54901 24.4585 11.0301 24.4585 14.0907C24.4585 17.1513 26.9396 19.6323 30.0002 19.6323C33.0608 19.6323 35.5419 17.1513 35.5419 14.0907C35.5419 11.0301 33.0608 8.54901 30.0002 8.54901Z" fill="#F2F6FB"/>
<path fill-rule="evenodd" clip-rule="evenodd" d="M37.9169 14.0907C37.9169 9.71842 34.3724 6.17401 30.0002 6.17401C25.6279 6.17401 22.0835 9.71842 22.0835 14.0907C22.0835 18.4629 25.6279 22.0073 30.0002 22.0073C34.3724 22.0073 37.9169 18.4629 37.9169 14.0907ZM24.4585 14.0907C24.4585 11.0301 26.9396 8.54901 30.0002 8.54901C33.0608 8.54901 35.5419 11.0301 35.5419 14.0907C35.5419 17.1513 33.0608 19.6323 30.0002 19.6323C26.9396 19.6323 24.4585 17.1513 24.4585 14.0907Z" fill="#F2F6FB"/>
<path fill-rule="evenodd" clip-rule="evenodd" d="M39.111 37.8351C41.0775 37.8351 42.6717 36.2409 42.6717 34.2743V33.3633C42.6717 31.9473 42.1657 30.578 41.2449 29.5023C38.7601 26.5993 34.9804 25.1666 30.0002 25.1666C25.0192 25.1666 21.2414 26.5998 18.7614 29.504C17.8435 30.5789 17.3391 31.9461 17.3391 33.3597V34.2743C17.3391 36.2409 18.9333 37.8351 20.8999 37.8351H39.111ZM20.8999 35.4601H39.111C39.7658 35.4601 40.2967 34.9292 40.2967 34.2743V33.3633C40.2967 32.5137 39.9931 31.6921 39.4406 31.0467C37.4512 28.7225 34.3358 27.5416 30.0002 27.5416C25.6645 27.5416 22.5519 28.7224 20.5675 31.0463C20.0167 31.6912 19.7141 32.5115 19.7141 33.3597V34.2743C19.7141 34.9292 20.245 35.4601 20.8999 35.4601Z" fill="#F2F6FB"/>
<path d="M39.111 35.4601H20.8999C20.245 35.4601 19.7141 34.9292 19.7141 34.2743V33.3597C19.7141 32.5115 20.0167 31.6912 20.5675 31.0463C22.5519 28.7224 25.6645 27.5416 30.0002 27.5416C34.3358 27.5416 37.4512 28.7225 39.4406 31.0467C39.9931 31.6921 40.2967 32.5137 40.2967 33.3633V34.2743C40.2967 34.9292 39.7658 35.4601 39.111 35.4601Z" fill="#F2F6FB"/>
</g>
<path d="M39.1108 37.835C41.0773 37.835 42.6715 36.2408 42.6715 34.2743V33.3632C42.6715 31.9473 42.1655 30.578 41.2447 29.5023C38.7599 26.5993 34.9802 25.1665 30 25.1665C25.0191 25.1665 21.2412 26.5997 18.7612 29.5039C17.8433 30.5789 17.3389 31.9461 17.3389 33.3597V34.2743C17.3389 36.2408 18.9331 37.835 20.8997 37.835H39.1108ZM39.1108 35.46H20.8997C20.2448 35.46 19.7139 34.9292 19.7139 34.2743V33.3597C19.7139 32.5115 20.0165 31.6912 20.5673 31.0462C22.5517 28.7224 25.6644 27.5415 30 27.5415C34.3357 27.5415 37.451 28.7224 39.4404 31.0467C39.9929 31.6921 40.2965 32.5137 40.2965 33.3632V34.2743C40.2965 34.9292 39.7656 35.46 39.1108 35.46ZM30 6.174C34.3723 6.174 37.9167 9.71841 37.9167 14.0907C37.9167 18.4629 34.3723 22.0073 30 22.0073C25.6277 22.0073 22.0833 18.4629 22.0833 14.0907C22.0833 9.71841 25.6277 6.174 30 6.174ZM30 8.549C26.9394 8.549 24.4583 11.0301 24.4583 14.0907C24.4583 17.1512 26.9394 19.6323 30 19.6323C33.0606 19.6323 35.5417 17.1512 35.5417 14.0907C35.5417 11.0301 33.0606 8.549 30 8.549Z" fill="#115ED5"/>
</g>
<defs>
<filter id="filter0_d_1_191" x="-6" y="-3" width="66" height="66" filterUnits="userSpaceOnUse" color-interpolation-filters="sRGB">
<feFlood flood-opacity="0" result="BackgroundImageFix"/>
<feColorMatrix in="SourceAlpha" type="matrix" values="0 0 0 0 0 0 0 0 0 0 0 0 0 0 0 0 0 0 127 0" result="hardAlpha"/>
<feOffset dx="-3" dy="8"/>
<feGaussianBlur stdDeviation="7"/>
<feColorMatrix type="matrix" values="0 0 0 0 0.0666667 0 0 0 0 0.368627 0 0 0 0 0.831373 0 0 0 0.24 0"/>
<feBlend mode="normal" in2="BackgroundImageFix" result="effect1_dropShadow_1_191"/>
<feBlend mode="normal" in="SourceGraphic" in2="effect1_dropShadow_1_191" result="shape"/>
</filter>
</defs>
</svg>
