<svg width="50" height="50" viewBox="0 0 50 50" fill="none" xmlns="http://www.w3.org/2000/svg">
<path d="M35.4724 37.653C32.7764 38.9107 30.4912 38.8428 27.6031 38.1173C24.5855 37.2606 26.2111 35.312 22.3536 35.0432C20.6616 34.9425 18.9657 35.1591 17.3547 35.6816C17.1018 35.7625 16.8337 35.7854 16.5706 35.7488C16.3066 35.7068 16.0567 35.6024 15.8418 35.4446C15.627 35.2867 15.4536 35.0799 15.3361 34.8417C15.2146 34.6079 15.1513 34.3487 15.1515 34.0857V22.3269C15.1498 21.9986 15.2458 21.6772 15.4276 21.4029C15.614 21.1308 15.8732 20.9155 16.1761 20.7814C18.1218 19.9546 20.2359 19.5922 22.3485 19.7231C26.2061 19.9919 27.9672 21.9405 30.9849 22.7804C33.3133 23.4355 36.7052 23.5363 41.4518 21.1342C41.7108 21.004 41.9987 20.9405 42.2889 20.9493C42.5791 20.9581 42.8624 21.039 43.113 21.1845C43.3658 21.3272 43.5739 21.5365 43.7142 21.7893C43.8614 22.039 43.9392 22.3231 43.9394 22.6124V30.8126" fill="white"/>
<path d="M35.4724 37.653C32.7764 38.9107 30.4912 38.8428 27.6031 38.1173C24.5855 37.2606 26.2111 35.312 22.3536 35.0432C20.6616 34.9425 18.9657 35.1591 17.3547 35.6816C17.1018 35.7625 16.8337 35.7854 16.5706 35.7488C16.3066 35.7068 16.0567 35.6024 15.8418 35.4446C15.627 35.2867 15.4536 35.0799 15.3361 34.8417C15.2146 34.6079 15.1513 34.3487 15.1515 34.0857V22.3269C15.1498 21.9986 15.2458 21.6772 15.4276 21.4029C15.614 21.1308 15.8732 20.9155 16.1761 20.7814C18.1218 19.9546 20.2359 19.5922 22.3485 19.7231C26.2061 19.9919 27.9672 21.9405 30.9849 22.7804C33.3133 23.4355 36.7052 23.5363 41.4518 21.1342C41.7108 21.004 41.9987 20.9405 42.2889 20.9493C42.5791 20.9581 42.8624 21.039 43.113 21.1845C43.3658 21.3272 43.5739 21.5365 43.7142 21.7893C43.8614 22.039 43.9392 22.3231 43.9394 22.6124V30.8126" fill="#54C5D0" fill-opacity="0.2"/>
<path d="M35.4724 37.653C32.7764 38.9107 30.4912 38.8428 27.6031 38.1173C24.5855 37.2606 26.2111 35.312 22.3536 35.0432C20.6616 34.9425 18.9657 35.1591 17.3547 35.6816C17.1018 35.7625 16.8337 35.7854 16.5706 35.7488C16.3066 35.7068 16.0567 35.6024 15.8418 35.4446C15.627 35.2867 15.4536 35.0799 15.3361 34.8417C15.2146 34.6079 15.1513 34.3487 15.1515 34.0857V22.3269C15.1498 21.9986 15.2458 21.6772 15.4276 21.4029C15.614 21.1308 15.8732 20.9155 16.1761 20.7814C18.1218 19.9546 20.2359 19.5922 22.3485 19.7231C26.2061 19.9919 27.9672 21.9405 30.9849 22.7804C33.3133 23.4355 36.7052 23.5363 41.4518 21.1342C41.7108 21.004 41.9987 20.9405 42.2889 20.9493C42.5791 20.9581 42.8625 21.039 43.113 21.1845C43.3658 21.3272 43.5739 21.5365 43.7142 21.7893C43.8614 22.039 43.9392 22.3231 43.9394 22.6124V30.8126" stroke="#1E385F" stroke-width="1.5" stroke-linejoin="round"/>
<path d="M2.89684 10.2746L2.89684 40.1989C2.90068 41.1897 3.28575 42.1389 3.96819 42.8395C4.65062 43.5401 5.57512 43.9355 6.54022 43.9394L24.7571 43.9394C25.7222 43.9355 26.6467 43.5401 27.3291 42.8395C28.0116 42.1389 28.3967 41.1897 28.4005 40.1989L28.4005 15.9895C28.4005 15.4683 28.197 14.9676 27.8333 14.5942L20.5731 7.13876C20.1967 6.75215 19.6799 6.53409 19.1403 6.53409L6.54022 6.53409C5.57512 6.53803 4.65062 6.93337 3.96819 7.634C3.28575 8.33464 2.90068 9.28379 2.89684 10.2746Z" fill="#F7FAFF" stroke="#1E385F" stroke-width="1.5"/>
<path d="M8.36185 34.3305L8.36185 23.1089C8.36568 22.118 8.75075 21.1689 9.43319 20.4682C10.1156 19.7676 11.0401 19.3723 12.0052 19.3683L19.292 19.3683C20.2571 19.3723 21.1816 19.7676 21.864 20.4682C22.5465 21.1689 22.9315 22.118 22.9354 23.1089L22.9354 34.3305C22.9315 35.3213 22.5465 36.2704 21.864 36.9711C21.1816 37.6717 20.2571 38.067 19.292 38.071L12.0052 38.071C11.0401 38.067 10.1156 37.6717 9.43319 36.9711C8.75075 36.2704 8.36568 35.3213 8.36185 34.3305Z" fill="white"/>
<path d="M8.36185 34.3305L8.36185 23.1089C8.36568 22.118 8.75075 21.1689 9.43319 20.4682C10.1156 19.7676 11.0401 19.3723 12.0052 19.3683L19.292 19.3683C20.2571 19.3723 21.1816 19.7676 21.864 20.4682C22.5465 21.1689 22.9315 22.118 22.9354 23.1089L22.9354 34.3305C22.9315 35.3213 22.5465 36.2704 21.864 36.9711C21.1816 37.6717 20.2571 38.067 19.292 38.071L12.0052 38.071C11.0401 38.067 10.1156 37.6717 9.43319 36.9711C8.75075 36.2704 8.36568 35.3213 8.36185 34.3305Z" fill="#54C5D0" fill-opacity="0.2"/>
<path d="M8.36185 34.3305L8.36185 23.1089C8.36568 22.118 8.75075 21.1689 9.43319 20.4682C10.1156 19.7676 11.0401 19.3723 12.0052 19.3683L19.292 19.3683C20.2571 19.3723 21.1816 19.7676 21.864 20.4682C22.5465 21.1689 22.9315 22.118 22.9354 23.1089L22.9354 34.3305C22.9315 35.3213 22.5465 36.2704 21.864 36.9711C21.1816 37.6717 20.2571 38.067 19.292 38.071L12.0052 38.071C11.0401 38.067 10.1156 37.6717 9.43319 36.9711C8.75075 36.2704 8.36568 35.3213 8.36185 34.3305Z" stroke="#54C5D0" stroke-width="1.5" stroke-linejoin="round"/>
<path d="M17.4705 23.1089L17.4705 19.3683L19.2922 19.3683C20.2573 19.3723 21.1818 19.7676 21.8642 20.4682C22.5466 21.1689 22.9317 22.118 22.9355 23.1089L22.9355 24.9791L19.2922 24.9791C18.8074 24.9795 18.3422 24.7824 17.9988 24.4311C17.6637 24.0765 17.4745 23.6029 17.4705 23.1089V23.1089Z" stroke="#54C5D0" stroke-width="1.5" stroke-linejoin="round"/>
<path d="M22.9355 32.4602L22.9355 34.3305C22.9317 35.3213 22.5466 36.2704 21.8642 36.9711C21.1818 37.6717 20.2573 38.067 19.2922 38.071L17.4705 38.071L17.4705 34.3305C17.4745 33.8364 17.6637 33.3629 17.9988 33.0082C18.3422 32.6569 18.8074 32.4598 19.2922 32.4602L22.9355 32.4602Z" stroke="#54C5D0" stroke-width="1.5" stroke-linejoin="round"/>
<path d="M9.27275 31.5251L12.9161 31.5251" stroke="#54C5D0" stroke-width="1.5" stroke-linecap="round"/>
<path d="M9.27275 25.9143L12.9161 25.9143" stroke="#54C5D0" stroke-width="1.5" stroke-linecap="round"/>
<ellipse cx="40.3022" cy="36.8808" rx="6.80097" ry="6.80097" fill="#F7FAFF" stroke="#1E385F" stroke-width="1.5" stroke-linejoin="round"/>
<path d="M40.3022 35.1806V38.5811" stroke="#1E385F" stroke-width="1.5" stroke-linecap="round"/>
</svg>
